<svg width="172" height="18" viewBox="0 0 172 18" fill="none" xmlns="http://www.w3.org/2000/svg">
<g clip-path="url(#clip0_316_2541)">
<path fill-rule="evenodd" clip-rule="evenodd" d="M0 9.00076V17.2741H2.61295H5.22589V13.9874V10.7008H11.1334H17.041V8.7741V6.84743H11.1334H5.22589V5.7141V4.58076H11.247H17.2682V2.6541V0.727431H8.63408H0V9.00076ZM37.7746 8.99578L33.6284 17.2741H36.3056H38.9831L39.7113 15.8008L40.4395 14.3274H45.421H50.4021L51.2281 15.8008L52.054 17.2741H54.8953H57.7368L56.4258 14.8374C55.7046 13.4972 53.7181 9.79976 52.0113 6.62076L48.908 0.840765L45.4144 0.779111L41.9207 0.717458L37.7746 8.99578ZM76.5707 8.99057V17.2741H84.9362C91.9537 17.2741 93.4998 17.2154 94.5298 16.9103C97.3032 16.0886 98.6773 13.1606 97.5015 10.5781C97.0412 9.56698 95.9169 8.50799 95.0819 8.29878C94.563 8.1689 94.5786 8.13648 95.497 7.44016C97.721 5.75444 97.3756 2.63347 94.8268 1.38182C93.7332 0.844618 93.6641 0.840311 85.148 0.773898L76.5707 0.707031V8.99057ZM117.242 9.00076V17.2741H125.762H134.283V15.2341V13.1941H128.489H122.695V6.96076V0.727431H119.968H117.242V9.00076ZM154.05 9.00076V17.2741H162.912H171.773V15.3474V13.4208H165.524H159.276V12.0608V10.7008H165.297H171.318V8.7741V6.84743H165.297H159.276V5.7141V4.58076H165.411H171.546V2.6541V0.727431H162.798H154.05V9.00076ZM81.7966 5.60076V6.84743H86.2422C88.8722 6.84743 90.8671 6.75155 91.1273 6.61283C91.631 6.34378 91.738 5.069 91.2941 4.6261C91.0998 4.4323 89.6936 4.3541 86.409 4.3541H81.7966V5.60076ZM43.9045 7.41636C43.1259 8.97606 42.4888 10.3021 42.4888 10.363C42.4888 10.4242 43.818 10.4741 45.4425 10.4741C47.0671 10.4741 48.3963 10.4124 48.3963 10.337C48.3963 10.1928 45.4403 4.58076 45.3644 4.58076C45.3403 4.58076 44.6834 5.8569 43.9045 7.41636ZM81.7966 12.0608V13.6474H86.5174C91.9614 13.6474 92.2484 13.5681 92.2484 12.0608C92.2484 10.5534 91.9614 10.4741 86.5174 10.4741H81.7966V12.0608Z" fill="#080B13"/>
</g>
<defs>
<clipPath id="clip0_316_2541">
<rect width="172" height="17" fill="white" transform="translate(0 0.5)"/>
</clipPath>
</defs>
</svg>
