<svg width="24" height="24" viewBox="0 0 24 24" fill="none" xmlns="http://www.w3.org/2000/svg">
<path fill-rule="evenodd" clip-rule="evenodd" d="M10.1779 2.58578C6.21368 2.58578 3 5.79946 3 9.76373C3 13.728 6.21368 16.9417 10.1779 16.9417C12.1604 16.9417 13.9535 16.1394 15.2535 14.8393C16.5536 13.5393 17.3559 11.7461 17.3559 9.76373C17.3559 5.79946 14.1422 2.58578 10.1779 2.58578ZM1 9.76373C1 4.69489 5.10911 0.585785 10.1779 0.585785C15.2468 0.585785 19.3559 4.69489 19.3559 9.76373C19.3559 11.9375 18.5992 13.9359 17.3364 15.508L21 19.1716C21.3905 19.5621 21.3905 20.1953 21 20.5858C20.6095 20.9763 19.9763 20.9763 19.5858 20.5858L15.9222 16.9222C14.3502 18.185 12.3517 18.9417 10.1779 18.9417C5.10911 18.9417 1 14.8326 1 9.76373Z" fill="#080B13"/>
</svg>
